<?xml version="1.0" standalone="no"?>
<!DOCTYPE svg PUBLIC "-//W3C//DTD SVG 20010904//EN"
 "http://www.w3.org/TR/2001/REC-SVG-20010904/DTD/svg10.dtd">
<svg version="1.0" xmlns="http://www.w3.org/2000/svg"
 width="74.000000pt" height="76.000000pt" viewBox="0 0 74.000000 76.000000"
 preserveAspectRatio="xMidYMid meet">
<metadata>
Created by potrace 1.16, written by Peter Selinger 2001-2019
</metadata>
<g transform="translate(0.000000,76.000000) scale(0.100000,-0.100000)"
fill="#000000" stroke="none">
<path d="M310 731 c0 -12 -38 -21 -42 -10 -2 5 -14 -1 -28 -14 -14 -13 -30
-22 -37 -20 -6 2 -13 -8 -17 -22 -4 -14 -13 -25 -21 -25 -10 0 -15 -11 -15
-35 0 -28 -4 -35 -20 -35 -11 0 -20 5 -20 11 0 6 -7 4 -15 -5 -8 -8 -15 -24
-15 -36 0 -16 -4 -20 -19 -15 -20 6 -46 -18 -36 -35 3 -5 1 -10 -4 -10 -6 0
-11 -20 -11 -45 0 -36 4 -45 18 -46 14 0 14 -2 2 -7 -8 -4 -16 -11 -16 -17 -1
-5 -4 -22 -8 -38 -5 -20 -2 -29 9 -33 8 -4 15 -12 15 -18 0 -7 11 -19 25 -26
31 -17 32 -35 3 -45 -20 -6 -20 -8 -5 -12 9 -2 17 -13 17 -24 0 -10 5 -18 12
-17 7 2 12 -5 13 -15 0 -10 6 -22 14 -26 7 -5 14 -20 14 -35 0 -19 5 -26 19
-26 12 0 18 -6 16 -16 -2 -10 3 -19 11 -22 8 -2 11 0 8 5 -3 5 -2 15 4 23 7
12 9 10 9 -7 0 -13 5 -23 11 -23 6 0 8 9 4 20 -4 11 -2 20 4 20 6 0 11 -9 11
-20 0 -11 7 -20 15 -20 8 0 15 7 15 15 0 17 25 20 35 5 12 -20 27 -10 23 15
-4 19 -1 25 13 25 18 0 25 -21 19 -59 -1 -11 1 -11 14 1 8 9 26 14 40 13 19
-2 23 1 19 12 -6 16 2 16 57 2 9 -2 15 2 14 11 -1 9 8 17 19 17 33 3 56 32 55
69 -1 19 -5 34 -10 34 -4 0 -8 5 -8 10 0 6 11 10 24 10 13 0 27 7 30 16 9 24
8 27 -12 22 -12 -4 -18 1 -18 14 0 12 5 17 14 13 10 -3 12 0 9 10 -4 8 4 22
16 32 13 10 26 26 30 37 6 15 10 16 23 5 13 -10 17 -10 25 2 5 8 9 24 9 36 0
12 5 25 11 29 7 4 8 9 1 13 -5 3 -13 22 -16 41 -6 27 -5 32 4 20 10 -13 11
-13 7 0 -2 8 -13 16 -25 18 -17 3 -21 0 -15 -15 6 -17 4 -16 -18 2 -13 11 -18
13 -11 5 16 -19 15 -40 -2 -40 -8 0 -17 -8 -19 -17 -2 -10 -3 -1 -1 20 3 27 0
36 -8 31 -8 -5 -9 -2 -5 10 4 10 7 19 7 22 0 2 7 1 15 -2 8 -4 15 -1 15 5 0 6
-4 11 -9 11 -5 0 -4 13 2 30 7 20 14 25 19 17 4 -7 8 -8 8 -3 0 5 -8 18 -17
29 -17 19 -17 20 4 15 15 -4 20 -2 17 7 -6 15 -35 15 -47 0 -6 -6 -7 -4 -4 5
8 26 -11 60 -33 60 -11 0 -20 -6 -20 -14 0 -7 -7 -19 -15 -26 -8 -7 -15 -21
-15 -31 0 -26 -27 -24 -35 2 -4 11 -22 27 -41 36 -19 9 -33 23 -32 31 2 8 -4
18 -12 22 -8 4 -25 12 -37 18 -27 14 -53 16 -53 3z"/>
</g>
</svg>
