<?xml version="1.0" standalone="no"?>
<!DOCTYPE svg PUBLIC "-//W3C//DTD SVG 20010904//EN"
 "http://www.w3.org/TR/2001/REC-SVG-20010904/DTD/svg10.dtd">
<svg version="1.0" xmlns="http://www.w3.org/2000/svg"
 width="50pt" height="50pt" viewBox="0 0 50.000000 50.000000"
 preserveAspectRatio="xMidYMid meet">

<g transform="translate(0.000000,51.000000) scale(0.100000,-0.100000)"
fill="#ffffff" stroke="none">
<path d="M165 415 c-11 -13 -28 -24 -37 -25 -10 0 -18 -6 -18 -14 0 -8 -16
-31 -35 -52 -38 -40 -41 -46 -22 -38 8 3 20 -2 27 -11 7 -8 21 -15 31 -15 23
0 24 -13 3 -34 -22 -22 -33 -20 -40 9 -7 30 -24 33 -24 5 0 -11 -7 -20 -15
-20 -8 0 -15 -7 -15 -16 0 -11 6 -14 20 -9 22 7 45 -11 45 -35 0 -11 12 -15
47 -16 27 0 48 -3 49 -5 0 -2 -5 -17 -11 -33 -13 -35 -6 -46 10 -17 6 12 15
19 21 16 5 -4 7 -10 5 -14 -3 -4 7 -17 22 -28 30 -22 43 -16 56 25 6 16 3 22
-8 22 -20 0 -20 10 1 40 16 23 16 23 -3 16 -14 -5 -16 -4 -8 4 9 9 17 9 33 1
20 -11 26 -5 22 22 0 4 3 7 9 7 13 0 8 -51 -6 -57 -13 -5 -6 -53 7 -53 5 0 9
9 9 19 0 11 4 22 9 25 16 10 42 134 29 142 -5 3 -4 12 2 19 7 8 8 19 4 26 -5
8 -10 5 -18 -9 -8 -16 -15 -19 -26 -12 -9 6 -11 13 -5 18 6 4 16 17 22 29 12
20 10 24 -22 39 -19 9 -35 19 -35 23 0 3 -15 7 -34 8 -27 1 -36 -3 -45 -24
-11 -24 -10 -25 4 -13 8 7 18 10 21 7 10 -9 -19 -42 -40 -45 -15 -3 -17 1 -12
22 4 15 2 26 -4 26 -5 0 -10 7 -10 16 0 11 6 14 20 9 24 -7 27 10 4 19 -9 3
-16 6 -17 6 -1 0 -11 -11 -22 -25z m117 -47 c-7 -7 -12 -8 -12 -2 0 14 12 26
19 19 2 -3 -1 -11 -7 -17z m-137 -8 c3 -5 1 -10 -4 -10 -6 0 -11 5 -11 10 0 6
2 10 4 10 3 0 8 -4 11 -10z m25 -29 c0 -6 -4 -13 -10 -16 -5 -3 -10 1 -10 9 0
9 5 16 10 16 6 0 10 -4 10 -9z m-44 -33 c-2 -32 -26 -35 -26 -4 0 15 6 26 14
26 7 0 13 -9 12 -22z m169 12 c3 -5 1 -10 -4 -10 -6 0 -11 5 -11 10 0 6 2 10
4 10 3 0 8 -4 11 -10z m-15 -29 c0 -4 -5 -12 -12 -19 -8 -8 -8 -15 2 -27 10
-12 10 -15 -4 -15 -9 0 -16 7 -16 15 0 8 -7 15 -15 15 -8 0 -15 5 -15 11 0 6
9 9 20 6 11 -3 20 -1 20 4 0 5 -7 9 -16 9 -8 0 -13 4 -10 9 7 10 46 3 46 -8z
m-70 -11 c0 -5 -7 -10 -15 -10 -8 0 -15 5 -15 10 0 6 7 10 15 10 8 0 15 -4 15
-10z m115 -30 c3 -5 1 -10 -4 -10 -6 0 -11 5 -11 10 0 6 2 10 4 10 3 0 8 -4
11 -10z m-125 -30 c0 -11 0 -23 1 -27 0 -4 -4 -9 -10 -11 -6 -2 -11 10 -11 27
0 17 5 31 10 31 6 0 10 -9 10 -20z m-80 -20 c0 -5 -4 -10 -10 -10 -5 0 -10 5
-10 10 0 6 5 10 10 10 6 0 10 -4 10 -10z m10 -30 c0 -5 -2 -10 -4 -10 -3 0 -8
5 -11 10 -3 6 -1 10 4 10 6 0 11 -4 11 -10z m108 -28 c2 -7 -3 -12 -12 -12 -9
0 -16 7 -16 16 0 17 22 14 28 -4z m2 -38 c0 -8 -5 -12 -10 -9 -6 4 -8 11 -5
16 9 14 15 11 15 -7z"/>
<path d="M96 113 c-11 -11 -6 -23 9 -23 9 0 18 -7 21 -15 9 -22 23 -19 21 4
-1 20 -40 45 -51 34z"/>
</g>
</svg>
