<?xml version="1.0" standalone="no"?>
<!DOCTYPE svg PUBLIC "-//W3C//DTD SVG 20010904//EN"
 "http://www.w3.org/TR/2001/REC-SVG-20010904/DTD/svg10.dtd">
<svg version="1.0" xmlns="http://www.w3.org/2000/svg"
 width="38.000000pt" height="38.000000pt" viewBox="0 0 38.000000 38.000000"
 preserveAspectRatio="xMidYMid meet">

<g transform="translate(0.000000,38.000000) scale(0.100000,-0.100000)"
fill="#ffffff" stroke="none">
<path d="M150 340 c0 -6 7 -10 15 -10 8 0 15 2 15 4 0 2 -7 6 -15 10 -8 3 -15
1 -15 -4z"/>
<path d="M210 340 c-13 -8 -12 -10 3 -10 9 0 17 5 17 10 0 12 -1 12 -20 0z"/>
<path d="M131 324 c-1 -11 13 -33 29 -49 l30 -29 30 29 c17 16 30 38 29 49 0
21 0 21 -8 1 -5 -11 -18 -29 -30 -39 -21 -19 -21 -19 -42 0 -12 10 -25 28 -30
39 -8 20 -8 20 -8 -1z"/>
<path d="M60 290 c0 -5 4 -10 9 -10 6 0 13 5 16 10 3 6 -1 10 -9 10 -9 0 -16
-4 -16 -10z"/>
<path d="M295 290 c3 -5 10 -10 16 -10 5 0 9 5 9 10 0 6 -7 10 -16 10 -8 0
-12 -4 -9 -10z"/>
<path d="M125 266 c17 -13 32 -22 35 -19 6 5 -41 42 -55 43 -5 0 4 -11 20 -24z"/>
<path d="M240 270 c-14 -10 -23 -21 -20 -23 3 -3 19 6 35 19 35 28 22 32 -15
4z"/>
<path d="M60 250 c0 -5 4 -10 9 -10 6 0 13 5 16 10 3 6 -1 10 -9 10 -9 0 -16
-4 -16 -10z"/>
<path d="M295 250 c3 -5 10 -10 16 -10 5 0 9 5 9 10 0 6 -7 10 -16 10 -8 0
-12 -4 -9 -10z"/>
<path d="M75 220 c3 -5 8 -10 11 -10 2 0 4 5 4 10 0 6 -5 10 -11 10 -5 0 -7
-4 -4 -10z"/>
<path d="M120 219 c0 -7 3 -9 7 -6 3 4 13 1 21 -6 13 -10 14 -9 10 3 -6 19
-38 26 -38 9z"/>
<path d="M227 223 c-13 -12 -7 -25 6 -14 8 6 17 8 20 4 4 -3 7 -1 7 5 0 13
-22 16 -33 5z"/>
<path d="M290 219 c0 -5 5 -7 10 -4 6 3 10 8 10 11 0 2 -4 4 -10 4 -5 0 -10
-5 -10 -11z"/>
<path d="M34 195 c21 -16 32 -13 21 4 -3 6 -14 11 -23 11 -15 -1 -15 -2 2 -15z"/>
<path d="M325 199 c-11 -17 0 -20 21 -4 17 13 17 14 2 15 -9 0 -20 -5 -23 -11z"/>
<path d="M110 189 c0 -10 50 -32 57 -25 2 2 -10 11 -26 19 -17 9 -31 11 -31 6z"/>
<path d="M237 183 c-16 -8 -27 -17 -24 -19 7 -8 57 15 57 26 0 5 -1 10 -2 9
-2 -1 -16 -8 -31 -16z"/>
<path d="M180 170 c0 -5 5 -10 10 -10 6 0 10 5 10 10 0 6 -4 10 -10 10 -5 0
-10 -4 -10 -10z"/>
<path d="M35 130 c3 -5 8 -10 11 -10 2 0 4 5 4 10 0 6 -5 10 -11 10 -5 0 -7
-4 -4 -10z"/>
<path d="M110 119 c7 -11 14 -18 17 -15 8 8 -5 36 -17 36 -7 0 -7 -6 0 -21z"/>
<path d="M253 125 c-9 -25 4 -29 17 -6 7 15 7 21 0 21 -6 0 -13 -7 -17 -15z"/>
<path d="M330 129 c0 -5 5 -7 10 -4 6 3 10 8 10 11 0 2 -4 4 -10 4 -5 0 -10
-5 -10 -11z"/>
<path d="M60 126 c0 -2 7 -6 15 -10 8 -3 15 -1 15 4 0 6 -7 10 -15 10 -8 0
-15 -2 -15 -4z"/>
<path d="M170 106 c20 -20 20 -20 40 0 20 19 20 19 -20 19 -40 0 -40 0 -20
-19z"/>
<path d="M290 120 c0 -5 7 -7 15 -4 8 4 15 8 15 10 0 2 -7 4 -15 4 -8 0 -15
-4 -15 -10z"/>
<path d="M70 95 c0 -16 22 -45 31 -40 15 10 11 23 -11 35 -11 6 -20 8 -20 5z"/>
<path d="M149 87 c11 -14 11 -20 0 -34 -12 -14 -12 -16 1 -11 8 2 15 15 15 28
0 13 -7 26 -15 28 -13 5 -13 3 -1 -11z"/>
<path d="M214 85 c-8 -19 2 -45 17 -45 8 0 8 4 -1 15 -10 12 -10 18 0 30 9 11
9 15 1 15 -6 0 -14 -7 -17 -15z"/>
<path d="M284 86 c-14 -11 -16 -17 -7 -26 8 -9 14 -7 23 10 15 28 9 34 -16 16z"/>
<path d="M171 37 c-8 -11 -5 -14 19 -14 24 0 27 3 19 14 -6 7 -15 13 -19 13
-4 0 -13 -6 -19 -13z"/>
</g>
</svg>
