<?xml version="1.0" standalone="no"?>
<!DOCTYPE svg PUBLIC "-//W3C//DTD SVG 20010904//EN"
 "http://www.w3.org/TR/2001/REC-SVG-20010904/DTD/svg10.dtd">
<svg version="1.0" xmlns="http://www.w3.org/2000/svg"
 width="38.000000pt" height="38.000000pt" viewBox="0 0 38.000000 38.000000"
 preserveAspectRatio="xMidYMid meet">
<metadata>
Created by potrace 1.16, written by Peter Selinger 2001-2019
</metadata>
<g transform="translate(0.000000,38.000000) scale(0.100000,-0.100000)"
fill="#000000" stroke="none">
<path d="M120 371 c0 -5 6 -12 13 -15 6 -4 -2 -4 -20 -1 -18 2 -35 0 -38 -5
-3 -6 1 -10 9 -10 8 0 18 -5 22 -12 5 -8 2 -9 -9 -5 -22 8 -49 -2 -40 -16 4
-6 0 -8 -10 -4 -20 8 -31 -21 -15 -41 11 -13 10 -14 -9 -8 -20 6 -21 5 -13
-23 5 -17 11 -35 15 -41 3 -6 0 -7 -9 -4 -18 7 -20 -4 -6 -26 6 -9 5 -17 -2
-21 -7 -4 -2 -19 13 -40 13 -19 25 -36 27 -39 2 -2 8 2 13 10 8 12 9 11 7 -5
-6 -33 14 -45 34 -21 18 21 18 21 12 -7 -7 -29 -7 -29 76 -29 83 0 83 0 76 29
-6 28 -6 28 12 7 20 -24 40 -12 34 21 -3 17 -1 18 8 5 8 -10 13 -11 16 -3 3 6
14 21 25 34 23 27 25 43 4 35 -14 -5 -14 -4 0 16 19 29 19 42 -1 34 -9 -3 -12
-2 -9 4 4 6 10 24 15 41 8 28 7 29 -13 23 -19 -6 -20 -5 -9 8 16 20 5 49 -15
41 -10 -4 -14 -2 -10 4 9 14 -18 24 -40 16 -11 -4 -14 -3 -9 5 4 7 14 12 22
12 8 0 12 4 9 10 -3 5 -20 7 -38 4 -24 -4 -28 -3 -17 5 8 5 11 13 7 17 -3 4
-14 1 -24 -7 -11 -9 -14 -10 -9 -1 9 15 -6 16 -22 0 -9 -9 -15 -9 -24 0 -16
16 -31 15 -22 0 6 -10 4 -10 -7 0 -15 14 -29 16 -29 3z"/>
</g>
</svg>
