<?xml version="1.0" standalone="no"?>
<!DOCTYPE svg PUBLIC "-//W3C//DTD SVG 20010904//EN"
 "http://www.w3.org/TR/2001/REC-SVG-20010904/DTD/svg10.dtd">
<svg version="1.0" xmlns="http://www.w3.org/2000/svg"
 width="169.000000pt" height="166.000000pt" viewBox="0 0 169.000000 166.000000"
 preserveAspectRatio="xMidYMid meet">
<metadata>
Created by potrace 1.16, written by Peter Selinger 2001-2019
</metadata>
<g transform="translate(0.000000,166.000000) scale(0.100000,-0.100000)"
fill="rgb(0,255,0)" stroke="none">
<path d="M861 1638 c-5 -13 -6 -27 -3 -32 3 -5 -2 -7 -11 -3 -21 8 -40 -17
-32 -41 6 -22 -17 -52 -41 -52 -21 0 -17 -31 5 -37 10 -3 21 -15 24 -28 l4
-24 -25 19 c-14 11 -34 20 -46 20 -19 0 -22 -6 -23 -41 -2 -49 -7 -56 -25 -38
-18 19 -22 50 -6 47 19 -4 22 39 4 64 -24 34 -19 45 8 19 21 -20 24 -21 30 -5
4 10 1 21 -5 25 -7 4 1 10 20 14 17 3 31 10 31 15 0 13 -28 32 -38 26 -5 -3
-17 4 -26 17 -15 19 -26 22 -79 21 -37 -1 -65 3 -69 10 -12 17 -29 -14 -23
-40 6 -28 -22 -40 -45 -19 -16 14 -18 14 -24 0 -9 -25 -7 -45 5 -45 5 0 7 5 4
10 -3 6 3 10 14 10 10 0 26 2 34 6 8 3 21 -6 32 -22 14 -22 15 -28 4 -35 -21
-13 -29 -11 -29 10 0 27 -35 32 -59 10 -22 -21 -41 -25 -41 -9 0 6 -5 10 -10
10 -6 0 -9 -12 -8 -26 2 -15 -3 -29 -9 -31 -7 -3 -13 3 -13 12 0 16 -44 82
-65 97 -31 23 -135 -6 -135 -37 0 -16 -5 -17 -35 -6 -19 8 -19 8 2 26 23 20
22 35 -3 35 -8 0 -14 -10 -14 -24 0 -13 -7 -29 -15 -36 -14 -11 -14 -15 0 -37
12 -17 13 -28 5 -43 -13 -23 4 -65 39 -99 22 -21 23 -24 8 -33 -10 -5 -17 -21
-17 -40 0 -29 -2 -30 -30 -25 -22 5 -32 2 -39 -11 -8 -14 -12 -15 -23 -4 -11
11 -10 15 5 23 26 15 21 30 -7 18 -31 -14 -36 -35 -20 -75 10 -23 22 -33 46
-38 32 -7 32 -8 11 -18 -24 -12 -32 -48 -10 -48 6 0 0 -12 -15 -25 -28 -24
-38 -68 -18 -80 6 -3 10 -14 10 -24 0 -10 12 -30 26 -44 20 -20 25 -34 22 -57
-3 -16 -1 -30 4 -30 4 0 8 12 8 26 0 16 5 24 13 21 6 -2 12 -14 11 -26 0 -11
5 -21 13 -21 7 0 13 -8 13 -17 0 -14 2 -15 9 -4 7 11 12 11 32 0 l24 -14 -23
-3 c-29 -4 -40 -31 -19 -47 21 -15 11 -55 -14 -55 -11 0 -19 7 -19 15 0 19
-11 19 -35 1 -14 -10 -22 -11 -32 -2 -39 35 -40 35 -72 15 -36 -22 -39 -51
-18 -153 16 -74 36 -90 72 -56 13 13 28 21 31 17 10 -9 21 -127 12 -127 -16 0
-67 -62 -61 -76 6 -17 -1 -14 56 -20 56 -6 66 7 49 64 -10 30 -9 38 3 45 8 4
15 21 15 36 0 15 7 42 16 59 16 33 28 44 18 17 -5 -11 1 -15 19 -15 20 0 27 6
32 30 4 17 10 28 15 25 5 -3 10 0 12 7 2 6 10 8 17 4 9 -6 9 -11 0 -22 -6 -7
-15 -12 -19 -9 -5 3 -13 -8 -18 -24 -6 -16 -20 -39 -32 -51 -16 -16 -21 -31
-18 -51 5 -33 -16 -60 -26 -34 -3 9 -10 13 -16 10 -15 -9 -12 -25 4 -25 7 0
19 -7 26 -15 9 -10 17 -12 30 -5 13 7 20 6 24 -5 3 -9 -1 -15 -10 -15 -8 0
-13 -4 -10 -9 4 -5 0 -11 -6 -14 -21 -7 2 -23 54 -37 51 -13 73 -7 63 18 -3 9
2 30 11 48 16 29 20 31 43 21 14 -7 29 -16 32 -20 4 -5 16 -4 27 2 27 14 32
14 32 -3 0 -8 -12 -17 -27 -21 l-28 -7 21 -17 c21 -17 21 -18 3 -29 -28 -18
-23 -72 7 -72 14 0 25 -8 29 -19 3 -11 12 -21 19 -24 13 -5 69 10 93 26 6 4
18 4 27 1 18 -7 21 -39 5 -50 -8 -4 -7 -9 2 -15 22 -14 29 -10 26 14 -2 19 2
22 26 19 22 -2 30 2 34 18 4 16 11 19 27 14 11 -3 23 -6 26 -6 28 -1 32 4 28
36 -5 43 7 38 22 -10 11 -32 40 -54 71 -54 15 0 10 27 -7 34 -13 5 -14 9 -4
21 13 16 50 21 50 7 0 -4 -5 -13 -11 -19 -20 -20 9 -25 36 -6 29 22 32 33 6
33 -13 0 -18 6 -17 17 2 10 9 18 17 18 8 0 13 -6 12 -12 -4 -18 12 -16 27 2
16 19 39 19 46 0 4 -8 13 -15 21 -15 8 0 12 -4 9 -9 -3 -5 1 -14 9 -21 12 -10
18 -10 31 1 14 11 19 10 35 -10 11 -13 19 -29 19 -36 0 -11 48 -35 71 -35 18
0 89 73 115 117 19 32 29 42 34 32 13 -19 37 5 42 42 4 26 2 30 -16 27 -14 -2
-20 -9 -18 -20 5 -28 -15 -21 -22 7 -8 32 -1 45 24 45 13 0 17 5 14 15 -4 10
0 15 11 15 15 0 17 7 12 51 -5 44 -4 50 11 47 9 -2 25 -19 34 -38 32 -66 61
-78 97 -39 18 20 19 24 5 50 -16 33 -65 62 -88 53 -9 -3 -16 -1 -16 6 0 6 -4
9 -9 5 -5 -3 -12 -1 -16 5 -3 5 3 10 13 10 15 0 19 5 15 21 -6 20 -5 20 40 -2
26 -13 49 -20 53 -17 8 9 -28 57 -43 58 -15 0 -18 30 -3 30 6 0 10 14 10 30 0
27 -2 30 -19 20 -15 -7 -24 -6 -36 6 -18 19 -15 39 6 39 13 1 13 6 2 46 -6 20
30 32 46 16 9 -9 17 -8 32 1 18 11 23 11 35 -5 16 -22 18 -33 4 -33 -25 0 -6
-15 20 -16 41 -2 40 25 -2 51 -18 11 -44 28 -58 37 -29 19 -60 23 -60 7 0 -5
-5 -7 -11 -4 -7 5 -5 15 5 31 23 34 20 69 -6 82 -22 10 -22 11 7 11 36 1 63
-13 46 -23 -16 -10 -14 -23 6 -30 22 -9 41 10 25 26 -29 29 7 39 46 12 20 -14
22 -14 22 0 0 9 -5 16 -11 16 -7 0 -27 16 -46 35 -38 39 -48 42 -61 20 -7 -13
-11 -11 -21 12 -8 17 -15 23 -18 15 -3 -7 1 -19 7 -27 10 -12 9 -15 -8 -15
-12 0 -24 -5 -27 -10 -4 -6 -11 -8 -16 -5 -5 3 -6 -1 -3 -10 5 -11 0 -18 -15
-22 -11 -3 -21 -9 -21 -14 0 -5 -9 -9 -19 -9 -11 0 -22 -6 -24 -12 -3 -7 -6
-2 -6 12 -1 15 -4 20 -9 13 -4 -7 -13 -9 -21 -4 -10 7 -8 14 10 32 13 13 23
27 22 31 -2 5 4 8 12 8 9 0 18 8 21 18 3 9 11 28 17 40 9 20 8 25 -6 33 -9 6
-17 19 -17 29 0 10 -4 22 -10 25 -5 3 -10 11 -10 16 0 6 5 7 11 3 6 -3 10 1 9
12 -4 34 0 43 15 38 21 -9 19 19 -4 40 -14 13 -24 14 -45 7 -14 -6 -26 -17
-26 -25 0 -7 -9 -16 -20 -19 -11 -3 -20 -12 -20 -21 0 -18 15 -21 25 -5 12 19
28 3 29 -29 1 -36 -16 -42 -36 -14 -15 21 -91 35 -106 20 -6 -6 -16 -7 -23 -2
-16 9 13 22 54 23 28 1 38 25 15 34 -8 3 -6 6 5 6 26 1 21 27 -10 49 -33 24
-24 41 10 19 16 -10 28 -12 40 -5 17 9 57 2 67 -12 3 -4 16 -3 29 1 24 9 24
10 5 28 -10 10 -22 17 -26 14 -19 -10 -6 28 17 53 28 30 29 33 16 52 -9 15
-44 18 -78 7 -18 -6 -21 -4 -16 14 5 19 3 20 -20 12 -27 -10 -38 -3 -50 32 -4
10 -17 17 -32 17 -14 0 -28 7 -31 15 -8 19 -24 20 -24 1 0 -9 -7 -12 -19 -9
-12 3 -17 11 -14 23 6 24 -38 54 -67 45 -17 -5 -29 1 -55 29 -18 20 -37 36
-43 36 -24 0 -60 -43 -71 -85 -6 -25 -17 -44 -23 -42 -7 1 -12 -5 -13 -13 0
-30 -19 -24 -28 10 -6 24 -5 36 2 38 6 2 18 10 26 19 8 8 18 12 23 9 13 -8 9
38 -4 52 -18 17 -23 15 -33 -10z m308 -594 c-12 -14 -3 -19 28 -15 6 1 19 -12
29 -28 10 -17 23 -27 31 -24 9 3 13 -3 13 -21 0 -14 5 -26 10 -26 19 0 10 -29
-11 -35 -15 -5 -18 -10 -10 -15 8 -4 10 -17 5 -34 -5 -22 -10 -25 -28 -20 -18
6 -19 5 -7 -10 8 -9 9 -16 3 -16 -6 0 -14 -9 -17 -20 -3 -11 -14 -20 -23 -21
-10 0 -12 -3 -5 -5 7 -3 21 -1 31 5 15 8 23 6 36 -8 11 -12 13 -20 6 -23 -8
-2 -8 -11 -1 -31 9 -22 8 -27 -5 -27 -22 0 -45 26 -38 43 3 8 1 18 -5 22 -6 3
-11 -2 -11 -13 0 -20 -37 -42 -70 -42 -11 0 -20 7 -20 15 0 10 10 15 29 15 38
0 48 16 25 41 -15 16 -16 23 -6 37 7 9 16 27 22 40 5 12 16 22 24 22 27 0 29
22 5 41 l-24 18 33 12 c24 8 30 15 23 22 -6 6 -11 19 -11 28 0 15 -7 17 -37
13 -21 -2 -33 -2 -26 2 7 3 9 12 6 20 -3 7 -8 12 -12 10 -4 -3 -13 4 -20 16
-7 11 -8 17 -2 13 6 -3 14 1 17 9 3 9 10 13 16 10 5 -3 4 -11 -3 -20z m-534
-148 c3 -6 6 -30 8 -54 4 -41 3 -42 -14 -26 -18 16 -19 16 -19 -2 -1 -16 -3
-15 -14 5 -13 24 -14 24 -20 3 -4 -11 -13 -22 -21 -24 -11 -2 -10 -8 6 -28 14
-17 22 -21 26 -12 9 23 25 12 19 -13 -4 -14 -2 -25 4 -25 5 0 10 7 10 15 0 8
5 15 10 15 14 0 13 -23 -2 -38 -8 -8 -9 -12 -1 -12 6 0 18 7 27 15 25 25 40
18 21 -11 -16 -24 -16 -26 4 -31 12 -3 17 -11 14 -19 -3 -8 0 -14 6 -14 6 0
11 8 11 18 0 26 10 33 29 22 13 -6 17 -4 18 12 3 29 19 42 54 44 24 1 27 -1
18 -12 -9 -11 -7 -14 10 -14 12 0 19 5 16 10 -3 6 1 10 9 10 9 0 15 -3 14 -7
0 -5 1 -15 4 -23 27 -80 27 -82 12 -76 -9 3 -19 6 -24 6 -8 0 -25 48 -22 62 1
4 -4 5 -11 2 -7 -2 -21 4 -31 15 -22 24 -36 19 -29 -9 5 -17 19 -24 43 -22 3
0 7 -10 8 -24 2 -21 -1 -23 -17 -14 -28 15 -38 13 -44 -10 -9 -34 -64 -27 -85
10 -22 38 -29 38 -37 -2 -7 -28 -8 -30 -18 -12 -6 10 -21 32 -34 48 -13 16
-22 34 -19 41 3 8 -2 11 -14 8 -15 -4 -21 4 -30 38 -11 42 -11 44 17 67 15 13
21 22 12 19 -15 -5 -14 -1 2 33 16 32 22 37 44 32 15 -2 28 -10 30 -16z m483
-84 c2 -7 -3 -12 -12 -12 -10 0 -16 -9 -16 -25 0 -14 5 -25 10 -25 6 0 10 -7
10 -16 0 -13 -3 -14 -14 -5 -12 10 -16 5 -21 -33 -4 -25 -11 -46 -17 -46 -5 0
-3 -6 4 -14 7 -8 16 -12 21 -9 4 2 7 -3 7 -11 0 -21 -16 -21 -24 0 -4 10 -13
13 -25 9 -13 -4 -20 1 -25 17 -7 22 -8 22 -23 -10 -19 -36 -38 -37 -38 -2 0
13 -6 25 -13 28 -6 2 -12 9 -12 16 0 8 12 11 35 8 26 -3 35 0 35 11 0 8 7 18
16 21 11 4 15 14 12 31 -4 17 -1 25 8 25 8 0 14 4 14 8 0 5 9 18 21 31 21 23
40 24 47 3z m-20 -415 c8 -6 9 -14 3 -21 -7 -8 -4 -16 8 -23 16 -10 20 -9 24
6 5 22 47 36 47 16 0 -8 -8 -19 -17 -24 -13 -8 -14 -10 -4 -11 8 0 27 -15 43
-32 26 -31 28 -32 33 -13 9 30 69 29 73 -2 3 -17 -1 -20 -17 -16 -27 7 -91
-23 -91 -43 0 -12 -3 -12 -20 -2 -11 7 -20 16 -20 21 0 4 -14 22 -30 40 -25
26 -32 29 -39 18 -7 -10 -4 -19 7 -28 15 -11 14 -12 -11 -13 -27 0 -28 2 -22
30 4 19 1 37 -9 51 -10 15 -12 28 -6 39 5 10 6 20 2 24 -9 10 30 -5 46 -17z"/>
<path d="M340 185 c-23 -19 -45 -35 -50 -35 -14 0 -20 -31 -10 -50 5 -10 17
-20 26 -24 17 -7 123 40 126 55 0 5 1 15 2 22 1 6 4 15 9 18 10 7 -30 49 -47
49 -8 0 -33 -16 -56 -35z"/>
<path d="M803 163 c-7 -2 -13 -11 -13 -19 0 -9 -5 -12 -12 -8 -7 4 -10 4 -6
-1 4 -4 -2 -23 -13 -41 -34 -56 -10 -92 61 -89 77 4 73 2 65 42 -4 21 -6 48
-6 61 0 13 -5 22 -14 22 -8 0 -15 6 -15 14 0 11 -24 29 -33 25 -1 0 -8 -3 -14
-6z"/>
</g>
</svg>
