<?xml version="1.0" standalone="no"?>
<!DOCTYPE svg PUBLIC "-//W3C//DTD SVG 20010904//EN"
 "http://www.w3.org/TR/2001/REC-SVG-20010904/DTD/svg10.dtd">
<svg version="1.0" xmlns="http://www.w3.org/2000/svg"
 width="50.000000pt" height="49.000000pt" viewBox="0 0 50.000000 49.000000"
 preserveAspectRatio="xMidYMid meet">

<g transform="translate(0.000000,49.000000) scale(0.100000,-0.100000)"
fill="#ffffff" stroke="none">
<path d="M170 466 c0 -20 13 -27 29 -16 11 6 9 10 -8 19 -17 10 -21 9 -21 -3z"/>
<path d="M277 467 c-3 -8 3 -13 15 -14 10 -1 18 3 16 9 -6 18 -25 21 -31 5z"/>
<path d="M70 451 c0 -17 18 -21 24 -6 3 9 0 15 -9 15 -8 0 -15 -4 -15 -9z"/>
<path d="M144 435 c4 -11 2 -22 -6 -28 -9 -6 -8 -7 4 -3 10 3 20 1 23 -5 7
-10 25 -3 25 9 0 4 -13 16 -27 26 -25 19 -26 19 -19 1z"/>
<path d="M246 426 c3 -8 14 -16 25 -19 22 -6 24 0 6 16 -18 17 -37 19 -31 3z"/>
<path d="M42 419 c2 -6 8 -10 13 -10 5 0 11 4 13 10 2 6 -4 11 -13 11 -9 0
-15 -5 -13 -11z"/>
<path d="M346 405 c4 -8 13 -15 21 -15 13 0 13 3 3 15 -7 8 -16 15 -21 15 -5
0 -6 -7 -3 -15z"/>
<path d="M398 413 c7 -3 16 -2 19 1 4 3 -2 6 -13 5 -11 0 -14 -3 -6 -6z"/>
<path d="M96 395 c-8 -8 -23 -12 -33 -9 -15 5 -15 4 -3 -5 22 -16 34 -13 48 9
14 24 9 26 -12 5z"/>
<path d="M136 371 c-3 -5 1 -11 9 -15 9 -3 15 0 15 9 0 16 -16 20 -24 6z"/>
<path d="M255 367 c24 -14 31 -37 14 -48 -18 -11 9 -33 46 -37 25 -2 27 -1 12
8 -9 6 -14 16 -11 22 5 8 1 9 -10 5 -10 -4 -15 -3 -11 4 4 5 16 7 28 3 12 -3
19 -3 14 1 -4 5 1 17 10 27 16 18 16 19 -10 9 -19 -8 -33 -7 -54 4 -34 18 -56
19 -28 2z"/>
<path d="M210 349 c0 -5 5 -7 10 -4 6 3 10 8 10 11 0 2 -4 4 -10 4 -5 0 -10
-5 -10 -11z"/>
<path d="M241 314 c0 -11 3 -14 6 -6 3 7 2 16 -1 19 -3 4 -6 -2 -5 -13z"/>
<path d="M26 311 c-8 -12 3 -41 15 -41 12 0 12 37 0 45 -5 3 -12 1 -15 -4z"/>
<path d="M110 290 c0 -5 5 -10 10 -10 6 0 10 5 10 10 0 6 -4 10 -10 10 -5 0
-10 -4 -10 -10z"/>
<path d="M430 275 c-10 -12 -10 -15 2 -15 8 0 15 7 15 15 0 8 -1 15 -2 15 -2
0 -8 -7 -15 -15z"/>
<path d="M322 256 c7 -8 15 -12 17 -11 5 6 -10 25 -20 25 -5 0 -4 -6 3 -14z"/>
<path d="M115 250 c-8 -13 5 -13 25 0 13 8 13 10 -2 10 -9 0 -20 -4 -23 -10z"/>
<path d="M287 233 c-10 -9 -9 -23 2 -23 5 0 11 7 15 15 5 15 -5 20 -17 8z"/>
<path d="M390 230 c0 -5 6 -10 14 -10 8 0 18 5 21 10 3 6 -3 10 -14 10 -12 0
-21 -4 -21 -10z"/>
<path d="M10 178 c0 -36 4 -35 14 5 4 16 2 27 -4 27 -5 0 -10 -14 -10 -32z"/>
<path d="M107 196 c-3 -8 1 -20 9 -26 11 -10 14 -9 14 8 0 25 -16 37 -23 18z"/>
<path d="M140 174 c0 -6 7 -15 16 -18 9 -4 14 -13 10 -21 -3 -8 -1 -15 4 -15
6 0 10 9 10 20 0 11 -4 20 -10 20 -5 0 -7 6 -4 13 3 8 -2 14 -11 14 -8 0 -15
-6 -15 -13z"/>
<path d="M186 168 c3 -5 10 -6 15 -3 13 9 11 12 -6 12 -8 0 -12 -4 -9 -9z"/>
<path d="M400 176 c0 -2 7 -9 15 -16 9 -7 15 -8 15 -2 0 5 -7 12 -15 16 -8 3
-15 4 -15 2z"/>
<path d="M270 158 c0 -4 -10 -8 -22 -8 -20 -1 -21 -2 -6 -11 12 -7 24 -6 38 1
24 13 26 27 5 27 -8 0 -15 -4 -15 -9z"/>
<path d="M450 141 c0 -6 5 -13 10 -16 6 -3 10 1 10 9 0 9 -4 16 -10 16 -5 0
-10 -4 -10 -9z"/>
<path d="M180 105 c-7 -8 -9 -15 -4 -16 5 -1 -2 -4 -15 -8 -23 -6 -23 -7 -5
-21 10 -9 15 -10 10 -2 -4 7 -1 12 8 12 9 0 16 4 16 10 0 5 7 7 15 4 19 -8 20
10 1 25 -10 9 -16 8 -26 -4z"/>
<path d="M35 100 c3 -5 8 -10 11 -10 2 0 4 5 4 10 0 6 -5 10 -11 10 -5 0 -7
-4 -4 -10z"/>
<path d="M390 84 c0 -8 -4 -13 -9 -9 -5 3 -12 1 -15 -4 -10 -16 14 -24 29 -11
17 14 20 40 5 40 -5 0 -10 -7 -10 -16z"/>
<path d="M250 70 c0 -5 5 -10 11 -10 5 0 7 5 4 10 -3 6 -8 10 -11 10 -2 0 -4
-4 -4 -10z"/>
<path d="M225 21 c-3 -6 3 -9 14 -8 11 0 17 5 15 9 -7 11 -22 10 -29 -1z"/>
</g>
</svg>
