<?xml version="1.0" standalone="no"?>
<!DOCTYPE svg PUBLIC "-//W3C//DTD SVG 20010904//EN"
 "http://www.w3.org/TR/2001/REC-SVG-20010904/DTD/svg10.dtd">
<svg version="1.0" xmlns="http://www.w3.org/2000/svg"
 width="60.000000pt" height="36.000000pt" viewBox="0 0 60.000000 36.000000"
 preserveAspectRatio="xMidYMid meet">

<g transform="translate(0.000000,36.000000) scale(0.100000,-0.100000)"
fill="#ffffff" stroke="none">
<path d="M146 342 c-3 -6 1 -13 10 -16 23 -9 28 -2 10 13 -8 7 -17 8 -20 3z"/>
<path d="M195 330 c-10 -16 16 -42 37 -37 10 3 18 1 18 -4 0 -5 5 -9 10 -9 15
0 12 26 -5 40 -12 10 -18 10 -32 -1 -15 -12 -16 -12 -10 4 7 18 -8 24 -18 7z"/>
<path d="M280 296 c0 -13 4 -15 18 -7 22 12 52 -8 52 -35 0 -14 3 -15 12 -6
20 20 20 51 0 50 -9 0 -32 3 -49 7 -27 6 -33 4 -33 -9z"/>
<path d="M140 287 c0 -8 11 -20 25 -27 14 -7 25 -17 25 -22 0 -4 7 -8 15 -8 8
0 15 -4 15 -8 0 -5 -14 -9 -30 -9 -20 0 -26 3 -18 9 10 6 8 8 -4 8 -10 0 -21
0 -24 -1 -4 0 -10 4 -13 10 -5 8 -13 6 -27 -4 -18 -14 -18 -14 8 -15 18 0 29
-7 33 -20 4 -11 11 -17 17 -14 7 4 8 2 4 -4 -10 -16 7 -15 23 1 10 10 11 9 6
-3 -4 -11 1 -16 16 -17 17 -2 19 0 8 14 -11 12 -10 17 3 24 14 8 14 14 5 39
-6 17 -15 30 -19 30 -4 0 -4 -8 -1 -17 6 -16 5 -16 -10 -4 -9 7 -15 16 -13 20
5 7 -15 25 -32 29 -7 1 -12 -4 -12 -11z"/>
<path d="M305 280 c-3 -5 -3 -15 0 -20 4 -7 -8 -9 -34 -5 -24 3 -41 1 -41 -5
0 -6 8 -10 18 -10 13 0 14 -2 3 -9 -11 -7 -9 -10 9 -16 27 -8 60 -40 60 -57 0
-9 -4 -8 -10 2 -11 17 -11 15 -12 -35 -1 -19 2 -35 5 -35 4 0 12 0 17 0 6 0
10 5 10 11 0 5 -4 8 -9 5 -11 -7 -8 20 3 31 4 4 6 1 4 -7 -2 -9 6 -16 20 -18
12 -2 22 -7 22 -12 0 -5 -6 -7 -14 -4 -18 7 -32 -16 -16 -26 8 -5 7 -9 -4 -13
-9 -4 -16 -2 -16 3 0 6 -5 10 -12 10 -6 0 -3 -9 7 -20 14 -15 21 -17 31 -9 10
9 15 8 20 -4 7 -19 40 -11 77 20 16 12 34 23 40 23 8 0 7 4 -1 12 -17 17 -15
28 7 28 21 0 44 23 48 48 1 9 10 22 19 29 14 10 15 15 4 28 -7 8 -18 15 -24
15 -6 0 -4 -5 4 -10 11 -7 11 -10 2 -10 -7 0 -11 -4 -8 -9 4 -5 -3 -7 -14 -4
-11 3 -17 9 -14 14 3 5 -2 9 -10 9 -9 0 -16 5 -16 10 0 6 -10 10 -22 10 -13 0
-32 7 -42 15 -27 21 -36 19 -31 -6 3 -12 0 -29 -5 -38 -5 -9 -10 -11 -10 -4 0
7 -6 10 -14 7 -8 -3 -17 -1 -20 5 -5 7 -15 7 -33 0 l-27 -10 28 26 c15 14 24
30 21 35 -8 13 -12 13 -20 0z m121 -87 c-10 -10 -35 18 -29 33 4 12 8 11 20
-6 8 -12 12 -24 9 -27z m41 25 c-3 -8 -6 -5 -6 6 -1 11 2 17 5 13 3 -3 4 -12
1 -19z m-134 -22 c4 -10 1 -13 -8 -9 -8 3 -12 9 -9 14 7 12 11 11 17 -5z m141
-12 c3 -8 -3 -21 -12 -31 -16 -16 -16 -16 6 -11 12 3 22 2 22 -4 0 -5 -12 -8
-27 -6 -28 3 -40 25 -30 52 7 17 35 16 41 0z m-91 -21 c-4 -10 -2 -14 4 -10 6
4 19 -3 29 -15 11 -12 14 -18 8 -15 -13 7 -27 -19 -19 -33 6 -10 -34 -35 -42
-27 -2 3 5 8 17 12 16 5 18 10 10 20 -8 9 -8 15 0 20 6 3 8 11 4 16 -3 5 -11
6 -17 2 -25 -16 -36 -11 -32 15 1 15 3 27 4 27 0 1 10 1 20 2 14 1 18 -3 14
-14z m134 -5 c-3 -8 -6 -5 -6 6 -1 11 2 17 5 13 3 -3 4 -12 1 -19z m-84 -63
c-3 -9 -8 -14 -10 -11 -3 3 -2 9 2 15 9 16 15 13 8 -4z m-7 -37 c4 -6 3 -8 -4
-4 -6 3 -13 2 -17 -4 -3 -5 -12 -10 -18 -10 -7 0 -3 7 7 15 24 18 23 18 32 3z"/>
<path d="M108 203 c7 -3 16 -2 19 1 4 3 -2 6 -13 5 -11 0 -14 -3 -6 -6z"/>
<path d="M231 196 c-13 -16 1 -32 34 -38 14 -2 20 3 20 17 0 11 -6 19 -12 18
-7 -2 -13 2 -13 7 0 14 -16 12 -29 -4z"/>
<path d="M66 181 c-18 -7 -18 -8 -1 -25 10 -9 24 -15 31 -12 8 3 13 2 13 -2
-3 -19 2 -23 17 -12 12 11 15 11 12 0 -2 -7 3 -15 11 -18 8 -2 11 0 7 6 -3 6
-1 14 5 18 7 4 9 3 6 -3 -8 -13 24 -38 51 -39 17 0 21 4 17 15 -3 11 0 10 10
-3 8 -11 15 -23 15 -28 0 -4 8 -8 18 -8 12 0 14 2 4 8 -7 5 -10 16 -6 25 3 10
1 17 -5 17 -6 0 -8 7 -5 15 4 9 0 15 -7 16 -8 0 -31 2 -51 3 -20 1 -40 5 -44
9 -4 4 -13 2 -21 -5 -11 -9 -12 -7 -7 8 5 15 4 16 -5 8 -7 -7 -22 -9 -33 -6
-15 4 -17 7 -6 13 16 10 0 10 -26 0z m144 -56 c0 -8 -4 -15 -10 -15 -5 0 -7 7
-4 15 4 8 8 15 10 15 2 0 4 -7 4 -15z m37 9 c-3 -3 -12 -4 -19 -1 -8 3 -5 6 6
6 11 1 17 -2 13 -5z"/>
<path d="M545 170 c-3 -5 -1 -10 4 -10 6 0 11 5 11 10 0 6 -2 10 -4 10 -3 0
-8 -4 -11 -10z"/>
</g>
</svg>
