<?xml version="1.0" standalone="no"?>
<!DOCTYPE svg PUBLIC "-//W3C//DTD SVG 20010904//EN"
 "http://www.w3.org/TR/2001/REC-SVG-20010904/DTD/svg10.dtd">
<svg version="1.0" xmlns="http://www.w3.org/2000/svg"
 width="192.000000pt" height="185.000000pt" viewBox="0 0 192.000000 185.000000"
 preserveAspectRatio="xMidYMid meet">
<metadata>
Created by potrace 1.16, written by Peter Selinger 2001-2019
</metadata>
<g transform="translate(0.000000,185.000000) scale(0.100000,-0.100000)"
fill="#ffffff" stroke="none">
<path d="M941 1843 c-1 -6 4 -24 10 -40 6 -15 13 -43 15 -62 l5 -34 -23 29
c-40 51 -52 64 -60 64 -4 0 5 -19 21 -42 16 -24 41 -67 57 -97 26 -50 27 -57
15 -100 -6 -25 -20 -62 -30 -81 -10 -19 -33 -61 -49 -93 l-31 -58 -6 38 c-3
21 -13 63 -22 93 -20 68 -28 206 -15 265 5 25 6 45 2 45 -13 0 -29 -58 -37
-132 l-8 -67 -42 37 -42 37 20 50 c22 57 23 65 9 65 -5 0 -10 -6 -10 -14 0 -8
-10 -31 -21 -51 -22 -36 -42 -40 -76 -13 -15 12 -133 17 -126 6 2 -5 22 -8 43
-8 37 0 103 -30 100 -44 -1 -4 5 -17 14 -30 10 -16 16 -55 18 -124 l3 -101
-45 47 c-25 26 -60 58 -78 72 -52 39 -82 68 -82 79 0 5 -5 13 -12 17 -7 5 -8
3 -3 -6 6 -10 4 -12 -8 -7 -21 8 -22 -6 -2 -23 8 -7 15 -28 15 -47 0 -34 61
-202 84 -233 10 -13 -52 26 -64 40 -9 11 -163 84 -184 87 -11 2 -17 1 -14 -3
3 -3 13 -6 21 -8 8 -1 30 -13 48 -27 19 -14 45 -32 59 -39 21 -11 84 -60 136
-105 6 -5 22 -17 34 -25 45 -31 55 -39 44 -40 -6 0 -22 8 -35 18 -13 10 -31
22 -39 26 -8 4 -42 22 -75 41 -94 53 -241 125 -255 125 -8 0 -22 8 -33 18 -19
16 -20 16 -10 -2 6 -11 37 -34 69 -51 33 -17 58 -37 56 -45 -2 -8 3 -10 14 -6
18 7 69 -21 99 -54 10 -11 26 -20 35 -20 14 0 70 -48 70 -61 0 -2 -38 -3 -84
-1 l-85 3 -10 32 c-5 18 -12 44 -15 60 -4 15 -11 27 -16 27 -5 0 -7 -14 -3
-32 4 -18 7 -46 8 -63 0 -28 -2 -30 -37 -28 -21 1 -40 -3 -43 -8 -4 -5 15 -9
42 -9 l48 0 21 -53 c12 -28 21 -53 20 -54 -1 -1 -49 6 -106 17 -124 22 -157
10 -44 -16 l79 -18 -50 -14 c-27 -7 -70 -23 -95 -34 -25 -12 -51 -21 -57 -21
-7 0 -21 -9 -30 -20 -17 -19 -17 -19 5 -13 13 4 28 4 35 -1 34 -26 107 -33
353 -34 l259 0 -125 -62 c-69 -34 -152 -73 -185 -86 -33 -14 -86 -40 -118 -58
-31 -19 -72 -41 -90 -49 -56 -26 -83 -44 -67 -44 17 0 205 78 415 170 22 10
51 21 65 25 14 4 44 18 68 31 52 29 55 23 5 -10 -21 -13 -56 -40 -78 -61 -85
-79 -102 -94 -165 -142 -86 -65 -177 -123 -194 -123 -8 0 -16 -5 -18 -10 -2
-6 -13 -12 -26 -13 -12 0 -22 -4 -22 -7 0 -3 -16 -12 -36 -19 -19 -7 -34 -14
-32 -16 5 -5 170 50 208 70 32 16 169 103 180 115 3 3 18 16 34 30 28 25 29
25 17 2 -7 -13 -19 -26 -27 -29 -8 -3 -14 -10 -14 -16 0 -6 -9 -20 -19 -31
-10 -12 -27 -37 -38 -56 -10 -19 -27 -47 -37 -62 -9 -15 -19 -33 -20 -41 -1
-8 -8 -22 -14 -30 -8 -9 -9 -18 -3 -21 5 -4 12 -2 16 4 3 5 3 10 0 10 -3 0 3
10 15 22 11 12 20 26 20 30 0 19 120 165 176 216 100 89 109 95 100 56 -4 -16
-11 -31 -14 -34 -12 -9 -40 -75 -80 -190 -17 -47 -40 -107 -51 -133 -23 -52
-26 -71 -12 -63 10 7 52 93 97 201 l34 80 2 -50 c4 -116 1 -169 -10 -173 -7
-2 -12 -17 -12 -33 0 -32 -39 -121 -51 -114 -4 3 -9 -2 -13 -10 -15 -39 32 1
71 61 7 11 5 0 -3 -24 -9 -24 -14 -45 -12 -47 10 -10 110 194 128 260 7 28 31
87 52 133 21 45 38 88 38 94 0 6 2 9 5 7 2 -3 7 -129 11 -280 4 -150 9 -276
12 -279 2 -3 7 1 10 9 3 10 11 3 24 -20 10 -19 17 -25 14 -14 -26 109 -29 152
-17 272 7 68 16 136 21 151 l7 27 11 -25 c15 -37 60 -76 115 -99 26 -11 47
-22 47 -24 0 -2 12 -60 26 -128 15 -68 29 -136 31 -151 3 -16 9 -28 14 -28 5
0 6 12 4 28 -3 15 -11 72 -20 127 -8 55 -17 112 -20 126 -3 23 -1 25 21 21 14
-2 31 -16 38 -31 21 -40 29 -112 16 -145 -16 -42 -5 -44 15 -1 15 30 16 46 8
95 -7 45 -7 57 2 50 6 -5 54 -20 106 -34 139 -36 149 -37 149 -26 0 5 -3 9 -7
8 -16 -3 -153 44 -153 53 0 5 -3 8 -7 8 -29 -5 -95 42 -149 105 -53 61 -63 79
-72 131 -7 33 -16 77 -21 98 -5 20 -6 37 -3 37 3 0 36 -31 74 -70 38 -38 83
-76 102 -84 35 -14 51 -29 119 -110 65 -76 146 -156 158 -156 6 0 8 -7 4 -17
-5 -15 -4 -16 6 -6 10 10 7 19 -18 45 -18 18 -59 69 -92 113 -50 66 -57 81
-42 83 11 2 48 -16 83 -40 36 -24 96 -59 134 -78 38 -19 71 -38 74 -41 3 -4
16 -10 30 -13 21 -6 19 -4 -8 14 -19 11 -39 25 -45 31 -7 6 -43 31 -82 55 -62
41 -66 45 -35 39 33 -7 34 -6 15 9 -11 8 -27 16 -35 16 -25 0 -75 32 -125 77
-25 23 -44 44 -43 45 2 2 -13 20 -32 39 -19 20 -46 49 -59 65 l-24 29 70 3
c61 2 77 -1 134 -29 74 -37 154 -117 196 -196 15 -29 31 -53 35 -53 11 0 -28
87 -63 138 -34 50 -33 61 2 34 13 -10 38 -26 54 -34 17 -8 60 -31 98 -50 37
-19 67 -34 67 -32 0 4 -118 94 -124 94 -5 0 -112 74 -224 154 -45 33 -176 102
-222 118 -12 5 -11 7 5 13 11 3 33 14 49 22 32 17 77 14 165 -12 72 -22 149
-98 190 -189 17 -37 31 -71 31 -76 0 -6 4 -10 9 -10 10 0 -21 115 -42 156 -43
83 -135 151 -231 172 -26 6 -21 8 34 13 36 4 101 7 144 8 44 0 76 4 73 7 -9 9
-35 11 -140 13 -90 1 -110 15 -39 26 86 14 301 73 317 87 5 4 -4 8 -21 8 -16
0 -35 -5 -42 -12 -7 -7 -12 -9 -12 -6 0 3 -19 2 -42 -3 -24 -5 -74 -15 -112
-23 l-70 -14 29 22 c16 11 52 43 80 69 l50 49 -79 -54 c-43 -29 -93 -62 -110
-74 -23 -16 -55 -23 -126 -28 -52 -4 -124 -14 -160 -21 -36 -7 -66 -12 -68
-11 -5 6 78 46 93 46 8 0 15 5 15 10 0 6 6 10 13 10 6 0 41 20 77 45 36 25
120 72 186 105 67 33 136 73 155 90 19 16 39 30 45 30 15 0 26 28 14 35 -5 3
-13 -1 -17 -10 -5 -8 -55 -31 -113 -51 -93 -33 -217 -92 -324 -153 -53 -30
-55 -21 -4 20 60 49 163 102 318 165 74 30 139 60 145 66 7 8 5 9 -7 5 -9 -3
-36 -11 -60 -17 -81 -22 -218 -71 -273 -98 -5 -2 7 10 27 27 40 34 82 95 76
111 -2 6 -21 -12 -42 -40 -21 -27 -43 -50 -49 -50 -6 0 -20 -9 -31 -20 -24
-22 -138 -81 -145 -75 -2 3 4 15 13 27 9 13 33 48 53 78 20 30 39 57 42 60 4
3 31 41 60 85 30 44 62 88 70 97 33 35 41 48 32 48 -18 0 -231 -251 -231 -273
0 -4 -5 -5 -12 -1 -6 4 -8 3 -5 -3 4 -6 0 -16 -8 -23 -7 -6 -28 -34 -45 -61
-24 -36 -38 -49 -56 -49 -29 0 -30 6 -2 50 12 19 33 58 47 85 13 28 28 52 31
55 4 3 28 39 55 80 54 83 95 138 138 183 16 16 26 31 24 33 -9 9 -33 -7 -52
-36 -11 -16 -29 -34 -40 -40 -24 -14 -95 -104 -112 -142 -7 -16 -17 -28 -23
-28 -5 0 -10 -4 -10 -10 0 -9 -58 -97 -82 -124 -4 -6 -8 27 -8 72 l0 83 95 95
c52 52 95 97 95 100 0 11 -89 -54 -136 -99 l-51 -48 -7 62 c-3 34 -6 89 -6
121 0 33 -4 57 -9 54 -5 -3 -10 -65 -10 -138 -1 -73 -5 -135 -10 -138 -4 -3
-13 -14 -19 -25 -10 -18 -11 -18 -17 10 -3 17 -17 53 -30 80 -20 40 -25 66
-25 128 0 52 -4 76 -10 72 -6 -4 -9 -22 -6 -41 7 -43 -10 -45 -18 -1 -7 36
-44 118 -45 100z m-317 -463 c64 -79 73 -96 92 -168 8 -31 20 -62 27 -71 32
-39 -37 14 -98 76 -53 53 -77 88 -116 169 -27 56 -49 112 -49 124 0 20 5 18
46 -21 25 -24 69 -73 98 -109z m169 0 c15 -28 27 -72 32 -115 l7 -70 -23 30
c-13 17 -34 40 -47 51 -29 26 -62 137 -62 209 l0 50 35 -55 c19 -30 45 -75 58
-100z m-208 -282 c17 -9 39 -25 49 -37 l19 -21 -69 -1 c-38 0 -91 -4 -119 -9
-57 -9 -61 -7 -86 51 l-19 42 97 -5 c61 -3 109 -11 128 -20z m-185 -128 c0 -5
25 -22 55 -37 l54 -28 -167 -3 c-92 -1 -180 1 -197 6 l-30 9 30 13 c38 17 180
48 223 49 17 1 32 -3 32 -9z"/>
</g>
</svg>
