<?xml version="1.0" standalone="no"?>
<!DOCTYPE svg PUBLIC "-//W3C//DTD SVG 20010904//EN"
 "http://www.w3.org/TR/2001/REC-SVG-20010904/DTD/svg10.dtd">
<svg version="1.0" xmlns="http://www.w3.org/2000/svg"
 width="40.000000pt" height="25.000000pt" viewBox="0 0 40.000000 25.000000"
 preserveAspectRatio="xMidYMid meet">
<metadata>
Created by potrace 1.16, written by Peter Selinger 2001-2019
</metadata>
<g transform="translate(0.000000,25.000000) scale(0.100000,-0.100000)"
fill="#ffffff" stroke="none">
<path d="M160 241 c-43 -9 -69 -23 -94 -50 -11 -12 -30 -21 -43 -21 -16 0 -23
-6 -23 -20 0 -11 6 -20 14 -20 8 0 19 -14 25 -30 11 -32 42 -52 49 -32 2 7 16
12 32 12 15 0 33 7 40 15 31 37 108 6 135 -55 17 -37 22 -41 49 -38 51 5 72
69 39 118 -65 99 -137 137 -223 121z"/>
</g>
</svg>
