<?xml version="1.0" standalone="no"?>
<!DOCTYPE svg PUBLIC "-//W3C//DTD SVG 20010904//EN"
 "http://www.w3.org/TR/2001/REC-SVG-20010904/DTD/svg10.dtd">
<svg version="1.0" xmlns="http://www.w3.org/2000/svg"
 width="200.000000pt" height="200.000000pt" viewBox="0 0 200.000000 200.000000"
 preserveAspectRatio="xMidYMid meet">
<metadata>
Created by potrace 1.16, written by Peter Selinger 2001-2019
</metadata>
<g transform="translate(0.000000,200.000000) scale(0.100000,-0.100000)"
fill="#ffffff" stroke="none">
<path d="M1081 1987 c-9 -12 -8 -16 4 -21 19 -7 20 -32 1 -39 -10 -4 -13 -1
-10 7 6 16 -27 27 -57 19 -12 -4 -18 -11 -15 -20 3 -8 1 -11 -4 -8 -6 4 -17
-1 -26 -9 -8 -9 -12 -16 -7 -16 22 -1 -26 -20 -49 -20 -22 0 -27 4 -25 21 1
12 -4 24 -10 26 -7 3 -13 -2 -13 -11 0 -9 -12 -23 -26 -32 -19 -13 -22 -19
-12 -26 9 -6 6 -7 -9 -3 -12 3 -24 1 -28 -5 -3 -5 -17 -10 -30 -10 -21 0 -23
-3 -18 -37 4 -33 1 -39 -21 -50 -21 -9 -26 -8 -26 3 0 8 -9 14 -20 14 -11 0
-20 6 -20 14 0 22 -23 34 -57 29 -29 -5 -31 -7 -22 -30 15 -40 11 -48 -26 -48
-19 0 -35 1 -35 2 0 1 7 9 16 18 25 25 8 30 -24 6 -16 -11 -32 -18 -36 -14 -3
3 -6 -4 -6 -17 0 -13 3 -20 6 -17 6 6 44 -34 44 -46 0 -3 -11 -8 -25 -11 -15
-4 -23 -11 -19 -18 4 -6 1 -8 -7 -4 -8 3 -22 9 -31 12 -10 4 -18 14 -18 23 0
24 -18 40 -40 34 -11 -3 -17 -14 -17 -29 0 -26 7 -30 24 -13 7 7 12 6 16 -5 5
-12 0 -15 -24 -12 -16 2 -32 0 -35 -5 -3 -5 3 -9 13 -9 17 -1 17 -2 -1 -15
-11 -8 -16 -18 -12 -22 4 -5 16 2 26 15 12 14 21 18 25 12 5 -8 11 -8 19 -1 9
7 16 7 24 -1 16 -16 15 -48 0 -50 -37 -4 -44 -4 -54 4 -17 13 -64 -12 -64 -33
0 -18 -32 -43 -42 -33 -3 2 -18 -1 -34 -7 -16 -7 -35 -11 -42 -10 -6 1 -12 -2
-12 -8 0 -17 31 -41 52 -41 16 0 18 -3 9 -13 -8 -10 -7 -17 2 -26 9 -10 8 -15
-6 -26 -11 -7 -25 -11 -33 -8 -8 3 -14 -1 -14 -8 0 -9 -3 -10 -8 -4 -13 18
-38 13 -39 -7 -1 -13 3 -18 13 -14 8 3 14 1 14 -4 0 -6 -9 -10 -20 -10 -17 0
-20 -7 -20 -45 0 -49 1 -50 32 -34 19 10 20 9 15 -10 -3 -12 0 -21 6 -22 7 -1
1 -4 -12 -8 -14 -4 -26 -12 -28 -18 -3 -7 4 -9 16 -6 12 3 21 1 21 -6 0 -6 5
-11 10 -11 6 0 10 12 10 26 0 19 4 25 15 20 8 -3 15 0 15 7 0 19 20 -15 20
-35 0 -10 -10 -20 -25 -24 -14 -3 -23 -10 -20 -14 3 -5 1 -11 -4 -14 -5 -4
-12 3 -16 14 -8 24 -21 26 -29 4 -5 -13 -9 -14 -22 -4 -8 7 -12 20 -9 27 3 9
0 13 -7 11 -22 -8 -20 -27 6 -53 23 -23 25 -28 11 -41 -18 -19 -19 -45 -2 -63
7 -8 0 -7 -20 3 -30 15 -38 26 -34 49 0 4 -5 7 -13 7 -8 0 -21 9 -29 20 -21
30 -47 16 -47 -25 0 -26 5 -35 23 -41 34 -10 51 -44 22 -44 -21 0 -19 -6 12
-48 15 -20 23 -34 19 -30 -5 4 -15 1 -22 -7 -8 -7 -23 -11 -34 -8 -16 4 -20 0
-20 -17 0 -13 8 -24 20 -27 11 -3 20 -11 20 -19 0 -8 -6 -11 -15 -8 -8 4 -15
1 -15 -5 0 -6 5 -11 10 -11 6 0 23 -12 37 -26 21 -21 23 -28 12 -35 -11 -7
-11 -9 -1 -9 8 0 16 9 19 20 3 11 9 20 14 20 15 0 10 -19 -11 -40 -20 -20 -13
-34 14 -24 10 4 24 -5 40 -23 28 -33 27 -36 -7 -28 -18 5 -24 12 -20 23 4 15
3 15 -6 2 -15 -22 -14 -28 10 -35 16 -5 18 -9 9 -15 -7 -4 -9 -13 -5 -20 6 -9
3 -9 -14 -1 -24 13 -26 9 -9 -18 11 -18 14 -18 35 -4 33 22 54 3 46 -40 -6
-29 -5 -31 11 -18 14 12 16 12 10 -3 -3 -9 -14 -16 -24 -16 -10 0 -20 -10 -23
-22 -4 -12 -9 -19 -13 -15 -4 3 1 18 10 31 10 17 12 27 5 31 -6 4 -12 5 -13 4
-33 -45 -40 -79 -14 -79 15 0 38 -27 30 -35 -4 -5 1 -5 12 -1 13 4 17 2 13 -8
-3 -8 -1 -16 5 -18 7 -3 8 -9 3 -18 -12 -20 -14 -51 -4 -77 6 -17 5 -21 -6
-16 -8 3 -15 0 -15 -7 0 -6 9 -14 20 -17 19 -5 24 -14 21 -40 -1 -7 3 -13 8
-13 17 0 7 -43 -11 -48 -9 -2 -16 -12 -15 -22 1 -10 4 -17 8 -14 4 2 10 0 14
-6 4 -6 -5 -10 -19 -10 -33 0 -34 -16 -1 -22 13 -3 22 -1 19 3 -6 10 29 12 39
2 4 -3 2 -12 -4 -20 -9 -10 -8 -13 1 -13 8 0 10 -9 6 -27 -4 -16 -3 -23 1 -17
4 6 15 13 24 16 13 5 16 2 12 -11 -4 -14 2 -20 27 -23 28 -4 31 -3 25 16 -4
12 -7 29 -6 39 0 9 -4 17 -9 17 -4 0 -6 9 -3 20 6 22 33 28 33 8 1 -19 46 -49
64 -42 18 7 22 24 6 24 -5 0 -10 5 -10 10 0 6 7 10 15 10 8 0 15 -9 15 -21 0
-15 4 -19 19 -14 11 3 22 2 25 -4 3 -5 -5 -12 -19 -15 -46 -12 -24 -45 35 -53
39 -5 42 -4 36 14 -5 15 0 23 19 31 15 7 23 17 19 23 -4 8 1 9 16 4 19 -6 21
-4 15 14 -5 15 -2 21 9 21 9 0 16 -7 16 -15 0 -8 5 -15 10 -15 6 0 10 -4 10
-10 0 -5 -6 -7 -14 -4 -8 3 -17 1 -21 -5 -3 -6 0 -11 7 -11 8 -1 4 -9 -9 -19
-13 -11 -23 -22 -23 -25 0 -3 23 -6 51 -6 41 0 50 3 45 15 -3 9 0 15 10 15 8
0 17 -7 20 -15 7 -17 54 -21 54 -5 0 6 -4 10 -9 10 -5 0 -7 9 -4 20 10 39 27
20 26 -27 -1 -9 19 -13 64 -13 48 0 62 3 57 13 -6 10 -4 10 7 0 16 -16 189
-18 189 -3 0 6 5 10 11 10 5 0 7 -5 4 -10 -3 -6 1 -10 9 -10 9 0 16 4 16 10 0
5 13 7 32 3 26 -5 30 -4 25 10 -3 9 -2 19 4 23 6 3 8 13 5 21 -5 11 -2 13 10
9 9 -3 27 -9 40 -12 31 -8 32 13 2 26 -13 5 -17 9 -9 9 8 1 11 8 8 21 -4 17 0
20 26 21 18 0 39 2 48 4 12 2 16 -5 17 -26 0 -18 -4 -29 -13 -29 -8 0 -17 -5
-20 -11 -4 -6 0 -9 10 -7 10 2 20 -3 23 -11 3 -9 -1 -11 -17 -6 -12 4 -21 2
-21 -4 0 -6 3 -11 8 -12 4 0 19 -3 35 -5 30 -5 31 -5 17 30 -10 28 -4 34 14
12 14 -17 56 -31 56 -18 0 5 -9 12 -20 15 -36 9 -21 24 22 22 24 -2 47 3 55
10 18 19 16 25 -6 25 -11 0 -23 5 -26 10 -4 6 -11 8 -16 5 -5 -4 -9 -1 -9 4 0
6 -8 10 -17 8 -10 -1 -19 2 -20 6 -1 5 -10 15 -20 23 -14 11 -15 13 -3 14 10
0 7 7 -10 20 -21 17 -23 21 -10 30 13 9 13 11 0 20 -12 8 -11 10 7 10 12 0 25
-4 28 -10 3 -5 1 -10 -6 -10 -10 0 -10 -3 0 -12 11 -10 14 -10 18 0 6 17 23
15 23 -3 0 -8 9 -15 20 -15 14 0 20 -7 20 -22 0 -21 1 -21 20 -3 16 14 23 16
32 7 7 -7 20 -12 29 -12 10 0 20 -6 22 -12 4 -10 6 -10 6 0 1 7 14 12 31 12
22 0 30 5 30 18 0 23 -11 37 -34 45 -13 5 -17 3 -13 -7 4 -10 1 -13 -7 -10 -8
3 -13 12 -12 21 0 9 -5 18 -11 20 -7 3 -13 -2 -13 -10 0 -7 -11 -19 -25 -25
-14 -6 -25 -8 -25 -3 0 5 7 11 15 15 23 8 18 23 -9 28 -17 4 -23 1 -19 -9 6
-14 -5 -17 -24 -5 -13 8 -7 52 7 52 5 0 15 -7 24 -15 20 -20 58 -23 64 -6 3
10 0 12 -12 8 -10 -4 -19 -1 -22 8 -4 8 -14 15 -23 15 -10 0 -23 11 -29 24 -9
20 -7 27 7 40 16 15 19 15 24 2 9 -22 47 -8 60 22 9 20 9 26 -1 30 -6 2 -12 9
-12 15 0 8 4 7 12 -1 7 -7 22 -12 35 -12 27 0 29 -8 6 -26 -16 -12 -14 -13 19
-14 29 0 36 -3 32 -15 -4 -9 0 -15 9 -15 13 0 13 5 2 37 -7 21 -19 38 -27 38
-7 0 -13 5 -13 10 0 6 8 9 18 8 9 -2 17 2 17 7 0 6 7 10 16 10 8 0 13 4 10 9
-4 5 -1 11 6 13 15 5 49 -22 42 -34 -3 -4 2 -11 11 -15 10 -3 21 0 26 8 13 20
11 29 -6 29 -8 0 -19 9 -25 20 -9 16 -8 22 5 26 12 5 13 9 3 21 -9 12 -6 19
15 37 34 29 34 36 0 37 -16 1 -21 3 -12 6 19 5 21 53 2 53 -6 0 -15 5 -19 12
-5 7 -2 9 9 5 8 -3 21 1 27 9 10 11 8 14 -9 14 -13 0 -19 4 -16 10 4 6 14 10
23 8 10 -1 17 2 17 7 0 6 -10 9 -22 7 -23 -3 -31 12 -13 23 6 4 7 11 4 17 -5
7 4 9 25 6 28 -4 31 -2 25 16 -7 22 -25 38 -33 30 -3 -3 0 -8 7 -12 7 -5 2
-11 -16 -18 -35 -13 -82 0 -64 18 8 8 15 8 24 0 16 -13 44 1 34 16 -3 6 -2 13
3 17 19 11 -1 37 -24 31 -33 -8 -39 5 -10 24 15 10 37 15 50 12 15 -2 25 0 25
7 0 6 -8 11 -17 12 -15 0 -15 2 2 8 11 5 23 4 26 -1 4 -6 18 -11 33 -11 14 -1
26 -5 26 -8 0 -3 7 -6 14 -6 12 0 13 5 4 21 -8 15 -8 21 1 24 18 6 13 22 -8
22 -11 0 -23 5 -26 10 -3 5 -14 10 -24 10 -21 0 -47 27 -37 37 4 4 11 2 15 -5
10 -17 61 -5 61 15 0 8 -4 11 -10 8 -5 -3 -10 -1 -10 5 0 7 8 9 20 5 11 -4 20
-2 20 4 0 6 -6 11 -12 11 -9 0 -10 3 -2 8 8 5 34 64 34 77 0 1 -9 12 -20 25
-11 12 -17 27 -13 33 4 7 0 8 -12 3 -15 -5 -16 -4 -6 8 10 12 8 17 -8 26 -14
7 -21 21 -21 39 0 16 -7 34 -15 41 -14 12 -19 7 -16 -13 1 -5 -4 -5 -10 -2 -7
5 -10 -2 -7 -21 2 -23 -2 -29 -24 -35 -17 -4 -28 -3 -31 4 -2 7 -8 9 -12 5 -4
-4 -2 -14 5 -23 8 -10 9 -15 2 -15 -6 0 -16 9 -22 20 -6 11 -7 20 -2 20 14 0
23 43 11 51 -6 3 3 11 20 17 36 13 41 29 9 31 -82 4 -132 17 -123 32 4 5 -2 9
-11 9 -14 0 -15 3 -7 11 9 9 8 15 -3 27 -16 16 -14 34 4 40 7 2 12 -4 12 -13
0 -15 1 -15 16 -1 8 9 21 16 27 15 9 0 8 -2 0 -6 -7 -2 -13 -9 -13 -14 0 -12
21 -11 40 1 12 7 12 12 2 22 -14 14 -17 62 -3 54 5 -3 12 2 15 11 8 20 -14 36
-30 22 -7 -5 -17 -23 -24 -39 -7 -17 -14 -30 -16 -30 -16 0 -72 44 -67 53 5 8
8 7 11 -1 7 -21 42 -35 57 -22 16 13 -1 57 -26 63 -12 3 -15 12 -12 31 3 15 1
26 -6 26 -6 0 -11 7 -11 15 0 10 -11 15 -35 15 -19 0 -35 4 -35 9 0 4 12 6 26
3 19 -3 25 -1 20 7 -5 7 0 11 13 11 24 0 24 1 12 53 -7 30 -6 36 3 28 7 -6 16
-8 19 -4 11 10 8 33 -4 33 -12 0 -44 30 -32 30 4 1 -7 7 -26 15 -34 15 -56 12
-45 -6 3 -6 -3 -5 -15 3 -21 13 -20 13 11 21 24 7 28 11 17 18 -10 6 -7 9 14
9 37 0 35 17 -3 18 -16 0 -30 -3 -30 -8 0 -4 -16 -10 -35 -12 -22 -2 -35 0
-35 7 0 7 -22 12 -56 13 -54 1 -56 1 -50 -22 8 -32 -12 -38 -49 -15 -16 11
-24 19 -17 19 6 0 12 4 12 9 0 5 -38 9 -83 10 -62 1 -87 -2 -96 -12z"/>
</g>
</svg>
